# xmcd
#
# Track frame offsets: 
#        150
#        1014
#        17025
#        17916
#        42540
#        44835
#        59064
#        62169
#        79935
#        82257
#        94569
#        96945
#        115683
#        121191
#        144681
#        148164
#        171384
#        172194
#        190635
#        198951
#        216204
#        220173
#        235536
#        236049
#        257379
#
# Disc length: 3451 seconds
#
# Revision: 0
# Processed by: cddbd v1.5.2PL0 Copyright (c) Steve Scherf et al.
# Submitted via: ExactAudioCopy v0.95b3
#
DISCID=6c0d7919
DTITLE=The Beatles  - The Days In Their Life - Vol.18  FLAC
DYEAR=1900
DGENRE=
TTITLE0=Narrative
TTITLE1=02 Give Me Love (Give Me Peace On Earth) (George Harrison)
TTITLE2=Narrative
TTITLE3=Living In The Material World (George Harrison)
TTITLE4=Narrative
TTITLE5=Live And Let Die (Wings)
TTITLE6=Narrative
TTITLE7=Photograph (Ringo Starr)
TTITLE8=Narrative
TTITLE9=Sunshine Life For Me (Sail Away Raymond) (Ringo Starr)
TTITLE10=Narrative
TTITLE11=Mind Games (John Lennon)
TTITLE12=Narrative
TTITLE13=Nineteen Hundred And Eighty Five (Paul McCartney And Wings)
TTITLE14=Narrative
TTITLE15=Band On The Run (Paul McCartney And Wings)
TTITLE16=Narrative
TTITLE17=Jet (Paul McCartney And Wings)
TTITLE18=Narrative
TTITLE19=Going Down On Love (John Lennon)
TTITLE20=Narrative
TTITLE21=Whatever Gets You Through The Night (John Lennon)
TTITLE22=Narrative
TTITLE23=#9 Dream (John Lennon)
TTITLE24=Narrative
EXTD=
EXTT0=
EXTT1=
EXTT2=
EXTT3=
EXTT4=
EXTT5=
EXTT6=
EXTT7=
EXTT8=
EXTT9=
EXTT10=
EXTT11=
EXTT12=
EXTT13=
EXTT14=
EXTT15=
EXTT16=
EXTT17=
EXTT18=
EXTT19=
EXTT20=
EXTT21=
EXTT22=
EXTT23=
EXTT24=
PLAYORDER=
